<?xml version="1.0" encoding="UTF-8"?>
<svg width="180px" height="180px" viewBox="0 0 180 180" version="1.1" xmlns="http://www.w3.org/2000/svg" xmlns:xlink="http://www.w3.org/1999/xlink">
    <!-- Generator: Sketch 61.2 (89653) - https://sketch.com -->
    <title>参考1备份 3</title>
    <desc>Created with Sketch.</desc>
    <g id="Logo" stroke="none" stroke-width="1" fill="none" fill-rule="evenodd">
        <g transform="translate(-94.000000, -165.000000)" id="参考1备份-3">
            <g transform="translate(94.000000, 165.000000)">
                <circle id="椭圆形" fill="#CFD8DC" cx="90" cy="90" r="90"></circle>
                <path d="M67.8685398,3.00004398 L113.999701,176.769563 C106.359304,178.875137 98.3114333,180 90.0004514,180 C40.2945746,180 0,139.764409 0,90.1312917 C0,48.1237894 28.8640449,12.8479778 67.8685398,3.00004398 Z" id="形状结合" fill="#2196F3"></path>
                <path d="M55.812853,62 L77,114 L66.6231132,114 L60.8399851,99.8181818 L41.1455691,99.8181818 L35.3720715,114 L25,114 L46.1823317,62 L55.812853,62 Z M51.0048154,75.7358491 L45,90.4528302 L57,90.4528302 L51.0048154,75.7358491 Z" id="形状结合" fill="#FFFFFF" fill-rule="nonzero"></path>
                <path d="M136.428571,66 L136.428571,73.5951025 L160,73.5951025 L160,81.190205 L152.268571,81.190205 C149.238153,90.0084128 144.401517,98.1463318 138.047143,105.118575 C140.880843,107.562713 143.954447,109.733802 147.224286,111.600995 L144.273929,118.732796 C140.052752,116.418537 136.104838,113.666814 132.5,110.526288 C125.481934,116.665969 117.170874,121.262681 108.138929,124 L106.033214,116.674524 C113.771855,114.289295 120.902936,110.35288 126.960714,105.122373 C122.476997,100.215704 118.742391,94.7143024 115.870357,88.7853074 L124.670357,88.7853074 C126.859951,92.6924471 129.485473,96.3561241 132.5,99.7108623 C137.411131,94.2389731 141.281546,87.969987 143.932143,81.1940025 L105,81.190205 L105,73.5951025 L128.571429,73.5951025 L128.571429,66 L136.428571,66 Z" id="路径" fill="#3F3F3F" fill-rule="nonzero"></path>
            </g>
        </g>
    </g>
</svg>